<svg xmlns="http://www.w3.org/2000/svg" viewBox="0 0 256 256" fill="none" aria-hidden="true">
  <defs>
    <linearGradient id="mark-fill" x1="48" y1="60" x2="206" y2="202" gradientUnits="userSpaceOnUse">
      <stop stop-color="#22f1ff"/>
      <stop offset="0.52" stop-color="#0ea5e9"/>
      <stop offset="1" stop-color="#0b4fd6"/>
    </linearGradient>
    <linearGradient id="edge" x1="54" y1="70" x2="210" y2="192" gradientUnits="userSpaceOnUse">
      <stop stop-color="#a9ffff"/>
      <stop offset="0.5" stop-color="#13dfff"/>
      <stop offset="1" stop-color="#1478ff"/>
    </linearGradient>
    <filter id="glow" x="-30%" y="-30%" width="160%" height="160%" color-interpolation-filters="sRGB">
      <feGaussianBlur stdDeviation="4" result="blur"/>
      <feColorMatrix in="blur" type="matrix" values="0 0 0 0 0.08 0 0 0 0 0.83 0 0 0 0 1 0 0 0 0.8 0"/>
      <feMerge>
        <feMergeNode/>
        <feMergeNode in="SourceGraphic"/>
      </feMerge>
    </filter>
    <radialGradient id="bg" cx="50%" cy="48%" r="70%">
      <stop stop-color="#07162e"/>
      <stop offset="0.7" stop-color="#020617"/>
      <stop offset="1" stop-color="#000814"/>
    </radialGradient>
  </defs>

  <rect width="256" height="256" rx="22" fill="url(#bg)"/>
  <g filter="url(#glow)">
    <path d="M61 184V74l76 76c16 16 20 25 20 42-10 6-22 9-34 8v-55l-42-42v81H61Z" fill="url(#mark-fill)" stroke="url(#edge)" stroke-width="4" stroke-linejoin="round"/>
    <path d="M126 75h25v50l-12 13-13-13V75Z" fill="url(#mark-fill)" stroke="url(#edge)" stroke-width="4" stroke-linejoin="round"/>
    <path d="M146 139l47-53h43l-66 69 66 70h-43l-47-52 23-25 13 14 27-30h-18l-23 25-22-18Z" fill="url(#mark-fill)" stroke="url(#edge)" stroke-width="4" stroke-linejoin="round"/>
  </g>
</svg>
